<?xml version="1.0" encoding="UTF-8" standalone="no" ?>
<!DOCTYPE svg PUBLIC "-//W3C//DTD SVG 1.1//EN" "http://www.w3.org/Graphics/SVG/1.1/DTD/svg11.dtd">
<svg xmlns="http://www.w3.org/2000/svg" xmlns:xlink="http://www.w3.org/1999/xlink" version="1.1" width="1280" height="1024" viewBox="0 0 1280 1024" xml:space="preserve">
<desc>Created with Fabric.js 5.3.0</desc>
<defs>
</defs>
<g transform="matrix(1 0 0 1 640 512)" id="background-logo"  >
<rect style="stroke: none; stroke-width: 0; stroke-dasharray: none; stroke-linecap: butt; stroke-dashoffset: 0; stroke-linejoin: miter; stroke-miterlimit: 4; fill: rgb(255,255,255); fill-opacity: 0; fill-rule: nonzero; opacity: 1;"  paint-order="stroke"  x="-640" y="-512" rx="0" ry="0" width="1280" height="1024" />
</g>
<g transform="matrix(1.9211538461538462 0 0 1.9211538461538462 616.9819692078336 686.5434961621202)" id="text-logo"  >
<g style=""  paint-order="stroke"   >
		<g transform="matrix(1 0 0 1 0 0)" id="text-logo-path-0"  >
<path style="stroke: rgb(255,255,255); stroke-width: 0; stroke-dasharray: none; stroke-linecap: butt; stroke-dashoffset: 0; stroke-linejoin: miter; stroke-miterlimit: 4; fill: rgb(255,222,89); fill-rule: nonzero; opacity: 1;"  paint-order="stroke"  transform=" translate(-52.574999999999996, 8.190000000000001)" d="M 13.44 -16.38 L 9.66 -16.38 L 9.66 -10.5 L 9.77 -7.35 L 5.25 -16.38 L 1.05 -16.38 L 1.05 0 L 4.83 0 L 4.83 -5.88 L 4.73 -9.03 L 9.24 0 L 13.44 0 Z M 32.34 -16.38 L 32.34 0 L 42.63 0 L 42.63 -3.44 L 36.33 -3.44 L 36.33 -6.64 L 41.58 -6.64 L 41.58 -10.08 L 36.33 -10.08 L 36.33 -12.94 L 42.63 -12.94 L 42.63 -16.38 Z M 60.58 0 L 64.99 0 L 67.2 -5.57 L 69.41 0 L 73.81 0 L 70.01 -8.67 L 73.81 -16.38 L 69.19 -16.38 L 67.2 -11.38 L 65.2 -16.38 L 60.58 -16.38 L 64.36 -8.67 Z M 97.65 0.29 C 102.06 0.29 104.1 -2.1 104.1 -7.77 L 104.1 -8.61 C 104.1 -14.28 102.06 -16.67 97.65 -16.67 C 93.24 -16.67 91.2 -14.28 91.2 -8.61 L 91.2 -7.77 C 91.2 -2.1 93.24 0.29 97.65 0.29 Z M 97.54 -3.15 C 95.65 -3.15 95.26 -4.94 95.26 -7.77 L 95.26 -8.61 C 95.26 -11.45 95.65 -13.23 97.54 -13.23 L 97.75 -13.23 C 99.64 -13.23 100.04 -11.45 100.04 -8.61 L 100.04 -7.77 C 100.04 -4.94 99.64 -3.15 97.75 -3.15 Z" stroke-linecap="round" />
</g>
</g>
</g>
<g transform="matrix(1.9211538461538462 0 0 1.9211538461538462 629.5462644564614 745.1533417803378)" id="tagline-7c8b8653-4935-47ce-b7ff-c76653ce7982-logo"  >
<g style=""  paint-order="stroke"   >
		<g transform="matrix(1 0 0 1 0 0)" id="tagline-7c8b8653-4935-47ce-b7ff-c76653ce7982-logo-path-0"  >
<path style="stroke: none; stroke-width: 0; stroke-dasharray: none; stroke-linecap: butt; stroke-dashoffset: 0; stroke-linejoin: miter; stroke-miterlimit: 4; fill: rgb(255,222,89); fill-rule: nonzero; opacity: 1;"  paint-order="stroke"  transform=" translate(-265.26500000000004, 5.1499999999999995)" d="M 10.19 -5.92 L 10.19 -6.56 C 10.19 -10.88 8.72 -12.48 4.8 -12.48 L 0.8 -12.48 L 0.8 0 L 4.8 0 C 8.72 0 10.19 -1.6 10.19 -5.92 Z M 3.84 -2.62 L 3.84 -9.86 L 4.64 -9.86 C 6.72 -9.86 7.1 -8.72 7.1 -6.56 L 7.1 -5.92 C 7.1 -3.76 6.72 -2.62 4.64 -2.62 Z M 20.7 -12.48 L 17.73 0 L 20.99 0 L 21.49 -2.53 L 24.08 -2.53 L 24.59 0 L 27.84 0 L 24.86 -12.48 Z M 22.78 -8.96 L 23.55 -5.15 L 22.02 -5.15 Z M 40.29 -9.86 L 43.09 -9.86 L 43.09 -12.48 L 34.45 -12.48 L 34.45 -9.86 L 37.25 -9.86 L 37.25 0 L 40.29 0 Z M 55.55 0.22 C 58.91 0.22 60.46 -1.6 60.46 -5.92 L 60.46 -6.56 C 60.46 -10.88 58.91 -12.7 55.55 -12.7 C 52.19 -12.7 50.64 -10.88 50.64 -6.56 L 50.64 -5.92 C 50.64 -1.6 52.19 0.22 55.55 0.22 Z M 55.47 -2.4 C 54.03 -2.4 53.73 -3.76 53.73 -5.92 L 53.73 -6.56 C 53.73 -8.72 54.03 -10.08 55.47 -10.08 L 55.63 -10.08 C 57.07 -10.08 57.38 -8.72 57.38 -6.56 L 57.38 -5.92 C 57.38 -3.76 57.07 -2.4 55.63 -2.4 Z M 72.7 -5.01 C 74.38 -4.78 74.72 -4.35 74.72 -3.63 L 74.72 -3.57 C 74.72 -2.96 74.29 -2.4 73.25 -2.4 L 73.09 -2.4 C 72.05 -2.4 71.57 -2.94 71.57 -4.32 L 68.53 -4.32 L 68.53 -4.18 C 68.53 -1.04 70.13 0.22 73.17 0.22 C 76.22 0.22 77.81 -1.2 77.81 -3.65 L 77.81 -3.82 C 77.81 -6.27 76.35 -7.14 73.63 -7.5 C 71.95 -7.73 71.7 -8.11 71.7 -8.88 L 71.7 -8.94 C 71.7 -9.58 72.13 -10.08 73.01 -10.08 L 73.17 -10.08 C 74.29 -10.08 74.69 -9.41 74.69 -8 L 77.73 -8 L 77.73 -8.34 C 77.73 -11.36 76.32 -12.7 73.17 -12.7 C 70.16 -12.7 68.61 -11.18 68.61 -8.86 L 68.61 -8.69 C 68.61 -6.24 69.98 -5.38 72.7 -5.01 Z M 101.04 0.22 C 101.2 0.22 101.38 0.21 101.54 0.21 L 102.08 1.6 L 104.4 1.6 L 103.63 -0.3 C 105.2 -1.14 105.95 -2.93 105.95 -5.92 L 105.95 -6.56 C 105.95 -10.88 104.4 -12.7 101.04 -12.7 C 97.68 -12.7 96.13 -10.88 96.13 -6.56 L 96.13 -5.92 C 96.13 -1.6 97.68 0.22 101.04 0.22 Z M 102 -4.37 L 99.76 -4.37 L 100.5 -2.45 C 99.46 -2.72 99.22 -4 99.22 -5.92 L 99.22 -6.56 C 99.22 -8.72 99.52 -10.08 100.96 -10.08 L 101.12 -10.08 C 102.56 -10.08 102.86 -8.72 102.86 -6.56 L 102.86 -5.92 C 102.86 -4.75 102.77 -3.81 102.46 -3.2 Z M 118.9 0.22 C 122.51 0.22 123.54 -1.34 123.54 -3.97 L 123.54 -12.48 L 120.5 -12.48 L 120.5 -4.05 C 120.5 -3.06 120.22 -2.4 118.9 -2.4 C 117.57 -2.4 117.3 -3.06 117.3 -4.05 L 117.3 -12.48 L 114.26 -12.48 L 114.26 -3.97 C 114.26 -1.34 115.28 0.22 118.9 0.22 Z M 132.11 -12.48 L 132.11 0 L 139.95 0 L 139.95 -2.62 L 135.15 -2.62 L 135.15 -5.06 L 139.15 -5.06 L 139.15 -7.68 L 135.15 -7.68 L 135.15 -9.86 L 139.95 -9.86 L 139.95 -12.48 Z M 163.26 0.22 C 166.88 0.22 167.9 -1.34 167.9 -3.97 L 167.9 -12.48 L 164.86 -12.48 L 164.86 -4.05 C 164.86 -3.06 164.59 -2.4 163.26 -2.4 C 161.94 -2.4 161.66 -3.06 161.66 -4.05 L 161.66 -12.48 L 158.62 -12.48 L 158.62 -3.97 C 158.62 -1.34 159.65 0.22 163.26 0.22 Z M 185.92 -12.48 L 183.04 -12.48 L 183.04 -8 L 183.12 -5.6 L 179.68 -12.48 L 176.48 -12.48 L 176.48 0 L 179.36 0 L 179.36 -4.48 L 179.28 -6.88 L 182.72 0 L 185.92 0 Z M 194.58 -12.48 L 194.58 0 L 202.42 0 L 202.42 -2.62 L 197.62 -2.62 L 197.62 -5.06 L 201.62 -5.06 L 201.62 -7.68 L 197.62 -7.68 L 197.62 -9.86 L 202.42 -9.86 L 202.42 -12.48 Z M 220.35 -12.48 L 217.47 -12.48 L 217.47 -8 L 217.55 -5.6 L 214.11 -12.48 L 210.91 -12.48 L 210.91 0 L 213.79 0 L 213.79 -4.48 L 213.71 -6.88 L 217.15 0 L 220.35 0 Z M 231.97 -3.04 L 228.93 -3.04 L 228.93 0 L 230.43 0 C 230.24 0.62 229.73 0.96 228.93 0.96 L 228.93 2.4 C 230.93 2.4 231.97 1.36 231.97 -0.64 Z M 253.92 -12.48 L 250.88 -12.48 L 250.88 0 L 253.92 0 Z M 272.34 -7.2 L 272.26 -4.8 L 272.26 0 L 275.3 0 L 275.3 -12.48 L 270.77 -12.48 L 268.98 -5.28 L 267.18 -12.48 L 262.66 -12.48 L 262.66 0 L 265.7 0 L 265.7 -4.8 L 265.62 -7.2 L 267.41 0 L 270.54 0 Z M 286.99 -4.29 L 288.26 -4.29 C 290.37 -4.29 292.75 -4.77 292.75 -8.22 L 292.75 -8.54 C 292.75 -12 290.37 -12.48 288.26 -12.48 L 283.95 -12.48 L 283.95 0 L 286.99 0 Z M 286.99 -6.91 L 286.99 -9.86 L 288.38 -9.86 C 288.98 -9.86 289.68 -9.63 289.68 -8.45 L 289.68 -8.32 C 289.68 -7.14 288.98 -6.91 288.38 -6.91 Z M 302.88 -12.48 L 299.9 0 L 303.17 0 L 303.66 -2.53 L 306.26 -2.53 L 306.77 0 L 310.02 0 L 307.04 -12.48 Z M 304.96 -8.96 L 305.73 -5.15 L 304.19 -5.15 Z M 320.64 -5.92 L 320.64 -6.56 C 320.64 -8.72 320.86 -10.08 322.38 -10.08 L 322.54 -10.08 C 323.74 -10.08 323.98 -9.12 323.98 -7.68 L 327.02 -7.68 L 327.02 -8.3 C 327.02 -11.52 325.44 -12.7 322.38 -12.7 C 319.02 -12.7 317.55 -10.88 317.55 -6.56 L 317.55 -5.92 C 317.55 -1.6 319.02 0.22 322.38 0.22 C 325.44 0.22 327.02 -0.96 327.02 -4.18 L 327.02 -4.32 L 323.98 -4.32 C 323.98 -3.2 323.62 -2.4 322.54 -2.4 L 322.38 -2.4 C 320.86 -2.4 320.64 -3.76 320.64 -5.92 Z M 340.53 -9.86 L 343.33 -9.86 L 343.33 -12.48 L 334.69 -12.48 L 334.69 -9.86 L 337.49 -9.86 L 337.49 0 L 340.53 0 Z M 355.79 0.22 C 359.15 0.22 360.7 -1.6 360.7 -5.92 L 360.7 -6.56 C 360.7 -10.88 359.15 -12.7 355.79 -12.7 C 352.43 -12.7 350.88 -10.88 350.88 -6.56 L 350.88 -5.92 C 350.88 -1.6 352.43 0.22 355.79 0.22 Z M 355.71 -2.4 C 354.27 -2.4 353.97 -3.76 353.97 -5.92 L 353.97 -6.56 C 353.97 -8.72 354.27 -10.08 355.71 -10.08 L 355.87 -10.08 C 357.31 -10.08 357.62 -8.72 357.62 -6.56 L 357.62 -5.92 C 357.62 -3.76 357.31 -2.4 355.87 -2.4 Z M 383.98 0.22 C 384.14 0.22 384.32 0.21 384.48 0.21 L 385.02 1.6 L 387.34 1.6 L 386.58 -0.3 C 388.14 -1.14 388.9 -2.93 388.9 -5.92 L 388.9 -6.56 C 388.9 -10.88 387.34 -12.7 383.98 -12.7 C 380.62 -12.7 379.07 -10.88 379.07 -6.56 L 379.07 -5.92 C 379.07 -1.6 380.62 0.22 383.98 0.22 Z M 384.94 -4.37 L 382.7 -4.37 L 383.44 -2.45 C 382.4 -2.72 382.16 -4 382.16 -5.92 L 382.16 -6.56 C 382.16 -8.72 382.46 -10.08 383.9 -10.08 L 384.06 -10.08 C 385.5 -10.08 385.81 -8.72 385.81 -6.56 L 385.81 -5.92 C 385.81 -4.75 385.71 -3.81 385.41 -3.2 Z M 401.84 0.22 C 405.46 0.22 406.48 -1.34 406.48 -3.97 L 406.48 -12.48 L 403.44 -12.48 L 403.44 -4.05 C 403.44 -3.06 403.17 -2.4 401.84 -2.4 C 400.51 -2.4 400.24 -3.06 400.24 -4.05 L 400.24 -12.48 L 397.2 -12.48 L 397.2 -3.97 C 397.2 -1.34 398.22 0.22 401.84 0.22 Z M 415.06 -12.48 L 415.06 0 L 422.9 0 L 422.9 -2.62 L 418.1 -2.62 L 418.1 -5.06 L 422.1 -5.06 L 422.1 -7.68 L 418.1 -7.68 L 418.1 -9.86 L 422.9 -9.86 L 422.9 -12.48 Z M 444.46 -5.92 L 444.46 -6.56 C 444.46 -8.72 444.69 -10.08 446.21 -10.08 L 446.37 -10.08 C 447.57 -10.08 447.81 -9.12 447.81 -7.68 L 450.85 -7.68 L 450.85 -8.3 C 450.85 -11.52 449.26 -12.7 446.21 -12.7 C 442.85 -12.7 441.38 -10.88 441.38 -6.56 L 441.38 -5.92 C 441.38 -1.6 442.85 0.22 446.21 0.22 C 449.26 0.22 450.85 -0.96 450.85 -4.18 L 450.85 -4.32 L 447.81 -4.32 C 447.81 -3.2 447.44 -2.4 446.37 -2.4 L 446.21 -2.4 C 444.69 -2.4 444.46 -3.76 444.46 -5.92 Z M 462.3 -4.29 L 463.15 -4.29 L 464.78 0 L 468.06 0 L 466.14 -4.7 C 467.25 -5.2 468.06 -6.19 468.06 -8.22 L 468.06 -8.54 C 468.06 -12 465.68 -12.48 463.57 -12.48 L 459.26 -12.48 L 459.26 0 L 462.3 0 Z M 462.3 -6.91 L 462.3 -9.86 L 463.7 -9.86 C 464.29 -9.86 464.99 -9.63 464.99 -8.45 L 464.99 -8.32 C 464.99 -7.14 464.29 -6.91 463.7 -6.91 Z M 476.48 -12.48 L 476.48 0 L 484.32 0 L 484.32 -2.62 L 479.52 -2.62 L 479.52 -5.06 L 483.52 -5.06 L 483.52 -7.68 L 479.52 -7.68 L 479.52 -9.86 L 484.32 -9.86 L 484.32 -12.48 Z M 495.63 -5.92 L 495.63 -6.56 C 495.63 -8.72 495.86 -10.08 497.38 -10.08 L 497.54 -10.08 C 498.74 -10.08 498.98 -9.12 498.98 -7.68 L 502.02 -7.68 L 502.02 -8.3 C 502.02 -11.52 500.43 -12.7 497.38 -12.7 C 494.02 -12.7 492.54 -10.88 492.54 -6.56 L 492.54 -5.92 C 492.54 -1.6 494.02 0.22 497.38 0.22 C 500.43 0.22 502.02 -0.96 502.02 -4.18 L 502.02 -4.32 L 498.98 -4.32 C 498.98 -3.2 498.61 -2.4 497.54 -2.4 L 497.38 -2.4 C 495.86 -2.4 495.63 -3.76 495.63 -5.92 Z M 510.43 -12.48 L 510.43 0 L 518.27 0 L 518.27 -2.62 L 513.47 -2.62 L 513.47 -5.06 L 517.47 -5.06 L 517.47 -7.68 L 513.47 -7.68 L 513.47 -9.86 L 518.27 -9.86 L 518.27 -12.48 Z M 529.73 -3.04 L 526.69 -3.04 L 526.69 0 L 529.73 0 Z" stroke-linecap="round" />
</g>
</g>
</g>
<g transform="matrix(2.05973649013872 0 0 2.0597364901387194 629.4309952256921 470.85045310639555)" id="shape-50c3ffce-fdd6-4fd1-9533-acd457931aae"  >
<g style=""  paint-order="stroke"   >
		<g transform="matrix(1 0 0 1 -28.36696580759741 0)" id="path-02"  >
<path style="stroke: none; stroke-width: 1; stroke-dasharray: none; stroke-linecap: butt; stroke-dashoffset: 0; stroke-linejoin: miter; stroke-miterlimit: 4; fill: rgb(255,255,255); fill-rule: nonzero; opacity: 1;"  paint-order="stroke"  transform=" translate(-96.63303268159957, -95.13793213536208)" d="M 192.69917 112.87926 L 134.69525000000002 40.338899999999995 C 132.72018000000003 37.79494 129.81293000000002 36.135889999999996 126.68445000000001 35.67771 C 125.05695000000001 35.66189 123.3979 35.61454 121.69142000000001 35.53546 L 105.59064000000001 35.53546 C 102.49379 35.53546 99.46001000000001 36.27814 96.83716000000001 37.68441 C 75.68018000000001 49.02921 60.30626000000001 45.726839999999996 51.14195000000001 40.95504 C 47.99756000000001 39.32763 45.97513000000001 36.2465 45.73809000000001 32.70719 C 45.50114000000001 29.167879999999997 47.08120000000001 25.8497 49.97263000000001 23.795649999999995 L 78.42945 3.69738 C 80.56258 2.19631 82.85359 0.9480999999999997 85.25531000000001 0 L 5.84164 0 C 1.3227 0 -1.48975 4.92977 0.83288 8.81674 L 52.816790000000005 82.93715999999999 L 60.85922000000001 77.28062999999999 C 68.38031000000001 71.98737999999999 76.96000000000001 72.42983999999998 81.7318 78.35506 L 81.96875 78.65527 C 85.20794 82.85818 85.65031 88.38838 83.54881 93.01793 C 91.05408 89.33647 98.8912 90.44243 103.48912 96.17804000000001 L 103.71035 96.46244000000002 C 108.32419 102.37193000000002 107.92917 110.68295000000002 103.12574000000001 116.33958000000001 C 109.06677 114.22236000000001 115.81364 115.84977 119.79532 120.79535000000001 L 120.00074000000001 121.06393000000001 C 124.89897 127.35262000000002 123.93507000000001 136.48530000000002 117.78872000000001 141.84172 L 117.14084000000001 142.3947 C 122.19704000000002 141.13067 127.09518000000001 142.47368 130.20794 146.36066 L 130.42917 146.62923999999998 C 134.63208 152.08046 133.77888 159.96491999999998 128.46992 164.57876 L 117.06186 174.5331 L 125.30981 186.28873 C 127.98001 188.80096999999998 131.50361 190.38101999999998 135.16935 190.27041 C 141.48958000000002 190.06509 148.42595 186.0675 150.16407 177.94599 C 150.17989 177.83536999999998 150.21142 177.74057 150.25887 177.62995999999998 L 138.61386 164.10467999999997 C 137.76057 163.10932999999997 137.87117999999998 161.60825999999997 138.85081 160.75497 C 139.84625 159.90177 141.34733 160.01238999999998 142.20051999999998 161.00782999999998 L 153.46632999999997 174.09064999999998 C 153.60857999999996 174.02747999999997 153.75082999999998 173.98002999999997 153.89297999999997 173.9485 C 159.62858999999997 171.5626 165.64860999999996 167.45449 166.51761999999997 158.70091 L 143.00636999999998 131.65035 C 142.15317 130.67072000000002 142.24796999999998 129.16965 143.24342 128.30064000000002 C 144.22304999999997 127.44744000000001 145.72412 127.55806000000001 146.57732 128.53769000000003 L 169.09312999999997 154.43475000000004 C 169.25118999999998 154.33995000000004 169.40915999999999 154.26097000000004 169.58293999999998 154.19780000000003 C 175.79254999999998 151.68547000000004 180.6118 144.79644000000002 180.75394999999997 136.42216000000002 C 180.75394999999997 136.23256 180.76976999999997 136.04296000000002 180.81712 135.86908000000003 L 155.66263999999998 106.25883000000002 C 154.82526 105.26339000000002 154.95159999999998 103.77813000000002 155.94704 102.92493000000002 C 156.94248 102.07173000000002 158.44356 102.19807000000002 159.28103 103.19351000000002 L 183.69283 131.93475 C 183.81925999999999 131.85577 183.96150999999998 131.79260000000002 184.10366 131.74515 C 188.89128 130.03866 191.75117999999998 126.57833 192.84142 121.52223 C 193.47338 118.64652 193.37859 115.70763 192.69917 112.87926999999999 Z" stroke-linecap="round" />
</g>
		<g transform="matrix(1 0 0 1 21.817002155150092 -5.770657380130828)" id="path-01"  >
<path style="stroke: none; stroke-width: 1; stroke-dasharray: none; stroke-linecap: butt; stroke-dashoffset: 0; stroke-linejoin: miter; stroke-miterlimit: 4; fill: rgb(255,222,89); fill-rule: nonzero; opacity: 1;"  paint-order="stroke"  transform=" translate(-146.81700064434708, -89.36727475523125)" d="M 126.68445 149.5366 C 129.35475 152.99693 128.77004 158.03731 125.35716 161.00782999999998 L 114.32839 170.63031999999998 L 108.97197 175.30731999999998 C 107.58151 176.50817999999998 105.60643999999999 176.71358999999998 104.02638 175.78131999999997 C 99.76021 173.25326999999996 96.93194 169.71395999999996 95.63628 165.25817999999995 C 95.14647 163.55168999999995 95.81006 161.71886999999995 97.29532 160.67597999999995 L 104.02638 155.93580999999995 L 113.5857 149.20474999999993 C 118.49965 145.76023999999992 123.68229000000001 145.80768999999992 126.51055 149.33117999999993 L 126.68442999999999 149.53659999999994 Z M 100.37646 150.73746 L 114.67595 138.27079 C 118.91049 134.5577 119.60572 128.28482 116.25601 123.9713 L 116.14539 123.84487 C 114.20195000000001 121.42743 111.32624000000001 120.16331 108.35572 120.16331 C 106.19105 120.16331 103.99475000000001 120.827 102.06712 122.18583 L 87.51476 132.40875 L 80.75216999999999 137.16474 C 78.85607999999999 138.50785 77.97125 140.83048 78.57167999999999 142.9478 C 80.13591999999998 148.478 83.61205999999999 152.85469 88.92102999999999 155.95164 C 89.60043999999999 156.34665 90.3273 156.53625 91.11732999999998 156.53625 C 92.83953999999999 156.53625 94.81460999999999 155.58825 97.01090999999998 153.66054 L 100.37643999999999 150.73747 Z M 83.83331 127.14722 L 98.30659 114.5383 C 102.79399 110.60397 103.53657 103.95200000000001 99.98145 99.36979000000001 L 99.80767 99.14856 C 96.06294 94.51901000000001 89.26862 94.40839 82.88523 98.89579 L 70.24478 107.7757 L 62.549910000000004 113.19528 C 60.51167 114.63309 59.57940000000001 117.11379 60.21146 119.38907999999999 C 61.85468 125.21949 65.53624 129.83323 71.14543 133.10396 C 73.46807000000001 134.46288 76.3596 133.65704 79.75676 130.70234 L 83.83333 127.14720999999999 Z M 66.89505 103.01972 L 76.75459 94.42421 C 80.56258 91.09031 81.21036 85.43368000000001 78.22403 81.56252 L 78.03443 81.32557000000001 C 74.8585 77.37543000000001 69.05972 77.31216 63.57697 81.15169000000002 L 55.534440000000004 86.80832000000001 L 45.73807000000001 93.71316000000002 C 44.04740000000001 94.89820000000002 43.27319000000001 96.95226000000001 43.794630000000005 98.81681000000002 C 45.21672 103.87291000000002 48.39255000000001 107.85469000000002 53.24334 110.69877000000002 C 55.171060000000004 111.82065000000003 57.604310000000005 111.10960000000003 60.480030000000006 108.61308000000002 L 66.89506 103.01971000000003 Z M 249.51804 4.09239 C 248.90179 3.01796 247.77992 2.3700900000000003 246.53171 2.3700900000000003 L 97.53238 2.3700900000000003 C 91.6387 2.3700900000000003 85.96635 4.17138 81.16301 7.5685400000000005 L 52.70617 27.66682 C 51.17346 28.757060000000003 50.33608 30.5109 50.46242 32.39117 C 50.58885 34.255630000000004 51.66328 35.88313 53.322320000000005 36.752140000000004 C 61.49128 41.002500000000005 75.26933 43.87821 94.59349 33.513040000000004 C 97.91157 31.743380000000002 101.70375 30.795290000000005 105.59062 30.795290000000005 C 113.23814 30.795290000000005 120.86974000000001 30.890090000000004 128.51726 30.953350000000004 C 133.79469 30.984890000000004 139.23009 30.526700000000005 144.41262999999998 29.325850000000003 C 145.53450999999998 29.07308 146.62474999999998 28.788680000000003 147.71498999999997 28.456840000000003 C 150.51161999999997 27.635180000000002 153.22936999999996 26.529220000000002 155.75741999999997 25.091310000000004 L 158.11168999999998 29.199520000000003 C 155.64681 30.605700000000002 152.94496999999998 31.77492 149.97446 32.7072 C 145.94532999999998 34.00286 141.45793 34.85605 136.44917999999998 35.31433 C 137.16021999999998 35.962109999999996 137.83963999999997 36.65734 138.42424999999997 37.41574 L 183.86669999999998 94.23462 L 194.34238999999997 107.33326000000001 L 249.53386 7.55272 C 250.16582 6.44666 250.15001 5.1668199999999995 249.51804 4.09239 Z" stroke-linecap="round" />
</g>
</g>
</g>
</svg>